<?xml version="1.0" encoding="utf-8"?>
<!-- Generator: Adobe Illustrator 24.0.2, SVG Export Plug-In . SVG Version: 6.00 Build 0)  -->
<svg version="1.1" id="Layer_1" xmlns="http://www.w3.org/2000/svg" xmlns:xlink="http://www.w3.org/1999/xlink" x="0px" y="0px"
	 viewBox="0 0 178.6 249.4" style="enable-background:new 0 0 178.6 249.4;" xml:space="preserve">
<style type="text/css">
	.st0{fill:url(#SVGID_1_);}
	.st1{fill:#FFFFFF;}
</style>
<g id="InnerBorder">
	
		<linearGradient id="SVGID_1_" gradientUnits="userSpaceOnUse" x1="-13.4" y1="21.9488" x2="192.1" y2="227.4488" gradientTransform="matrix(1 0 0 -1 0 249.4488)">
		<stop  offset="0" style="stop-color:#EC008C"/>
		<stop  offset="1" style="stop-color:#2E3192"/>
	</linearGradient>
	<rect x="4.3" y="4.3" class="st0" width="170.1" height="240.9"/>
</g>
<g id="OuterBorder">
	<path d="M169.6,7.1c1.1,0,1.9,0.9,1.9,1.9v231.4c0,1.1-0.9,1.9-1.9,1.9H9c-1.1,0-1.9-0.9-1.9-1.9V9C7.1,7.9,8,7.1,9,7.1H169.6
		 M169.6,0H9C4,0,0,4,0,9v231.4c0,5,4,9,9,9h160.6c5,0,9-4,9-9V9C178.6,4,174.6,0,169.6,0L169.6,0z"/>
</g>
<g>
	<path id="TextBox" class="st1" d="M162.9,231H15.6c-1.6,0-2.8-1.3-2.8-2.8V49.6h153.1v178.6C165.7,229.8,164.5,231,162.9,231z"/>
	<rect id="TypeBox" x="12.8" y="34" class="st1" width="153.1" height="14.2"/>
	<path id="TitleBox" class="st1" d="M165.8,32.6H12.8v-17c0-1.6,1.3-2.8,2.8-2.8H163c1.6,0,2.8,1.3,2.8,2.8V32.6z"/>
</g>
<image style="display:none;overflow:visible;opacity:0.3;enable-background:new    ;" width="1488" height="2079" xlink:href="../card - new fonts.png"  transform="matrix(0.12 0 0 0.12 1.133503e-02 -1.559863e-02)">
</image>
<image style="display:none;overflow:visible;enable-background:new    ;" width="825" height="1125" xlink:href="euro-poker-card.png"  transform="matrix(0.2377 0 0 0.2377 -8.7732 -9)">
</image>
<image style="display:none;overflow:visible;opacity:0.5;enable-background:new    ;" width="745" height="1040" xlink:href="../afr-176-circle-of-dreams-druid.png"  transform="matrix(0.2399 0 0 0.2399 -5.451242e-02 0)">
</image>
</svg>
