<?xml version="1.0" encoding="UTF-8"?>
<svg id="Layer_2" data-name="Layer 2" xmlns="http://www.w3.org/2000/svg" viewBox="0 0 178.582677 249.448819">
  <defs>
    <style>
      .cls-1 {
        font-family: CrimsonPro-SemiBold, 'Crimson Pro';
        font-size: 8px;
        font-weight: 600;
      }

      .cls-2 {
        fill: #fff;
        stroke: #000;
        stroke-linecap: round;
        stroke-miterlimit: 10;
        stroke-width: 1.1625px;
      }

      .cls-3 {
        letter-spacing: -.004883em;
      }
    </style>
  </defs>
  <path d="m162.992126,127.559021c.781555,0,1.417358.635818,1.417358,1.417366v90.708656c0,.781525-.635803,1.417343-1.417358,1.417343H15.590561c-.781555,0-1.417374-.635818-1.417374-1.417343v-90.708656c0-.781548.635818-1.417366,1.417374-1.417366h147.401566m0-1.417297H15.590561c-1.565521,0-2.834671,1.269119-2.834671,2.834663v90.708656c0,1.565521,1.26915,2.834641,2.834671,2.834641h147.401566c1.565521,0,2.834656-1.269119,2.834656-2.834641v-90.708656c0-1.565544-1.269135-2.834663-2.834656-2.834663h0Z"/>
  <g>
    <polygon class="cls-2" points="62.362188 124.015748 28.346441 124.015748 24.094488 126.850404 24.094488 132.519715 28.346441 135.354371 62.362188 135.354371 66.614203 132.519715 66.614203 126.850404 62.362188 124.015748"/>
    <text class="cls-1" transform="translate(29.667191 131.714483)"><tspan x="0" y="0">Sequen</tspan><tspan class="cls-3" x="24.273438" y="0">c</tspan><tspan x="27.734375" y="0">e</tspan></text>
  </g>
</svg>