<?xml version="1.0" encoding="UTF-8"?>
<svg id="Layer_3" data-name="Layer 3" xmlns="http://www.w3.org/2000/svg" viewBox="0 0 178.582677 249.448819">
  <path d="m162.992126,127.559021c.781555,0,1.417358.635818,1.417358,1.417366v90.708656c0,.781525-.635803,1.417343-1.417358,1.417343H15.590546c-.781525,0-1.417328-.635818-1.417328-1.417343v-90.708656c0-.781548.635803-1.417366,1.417328-1.417366h147.401581m0-1.417297H15.590546c-1.565521,0-2.834625,1.269119-2.834625,2.834663v90.708656c0,1.565521,1.269104,2.834641,2.834625,2.834641h147.401581c1.565552,0,2.834656-1.269119,2.834656-2.834641v-90.708656c0-1.565544-1.269104-2.834663-2.834656-2.834663h0Z"/>
</svg>